Coordinates
version=1
nRows=14
nColumns=40
inDegrees=yes

Units are S.I. units (second, meters, Newtons, ...)
Angles are in degrees.

endheader
time	pelvis_tilt	pelvis_list	pelvis_rotation	pelvis_tx	pelvis_ty	pelvis_tz	hip_flexion_r	hip_adduction_r	hip_rotation_r	knee_angle_r	knee_angle_r_beta	ankle_angle_r	subtalar_angle_r	mtp_angle_r	hip_flexion_l	hip_adduction_l	hip_rotation_l	knee_angle_l	knee_angle_l_beta	ankle_angle_l	subtalar_angle_l	mtp_angle_l	lumbar_extension	lumbar_bending	lumbar_rotation	arm_flex_r	arm_add_r	arm_rot_r	elbow_flex_r	pro_sup_r	wrist_flex_r	wrist_dev_r	arm_flex_l	arm_add_l	arm_rot_l	elbow_flex_l	pro_sup_l	wrist_flex_l	wrist_dev_l
      0.64000000	     -2.16118118	      3.19235641	      0.60288246	     -0.52329770	      0.94493352	     -1.48325807	     28.36344066	    -11.09147550	    -23.08488187	    -13.65573363	     -0.23833751	      2.57250442	      8.58725780	      8.37360018	     -6.90751996	     -4.48074173	     17.70663632	    -11.57230223	     -0.20197478	      8.70468659	      1.35587866	    -10.64618000	     -5.74761541	     -3.08796134	     -7.33008847	      1.51168402	     -7.19598055	    -18.93529557	     21.36559930	     89.95437384	      0.00000000	      0.00000000	     15.69004697	     15.52711775	     -1.10787339	     27.35208812	     89.95437384	      0.00000000	      0.00000000
      0.65000000	     -2.31742866	      3.34792626	      0.71261658	     -0.51512984	      0.94365213	     -1.48256978	     28.78294065	    -11.16376683	    -23.23701770	    -13.29785476	     -0.23209135	      2.67971508	      8.53847545	      8.23986605	     -7.23346758	     -4.53937561	     17.74101410	    -11.71542259	     -0.20447270	      8.76593050	      1.30391656	    -10.63483414	     -5.54996238	     -3.23864344	     -7.30064317	      1.21347416	     -7.22563545	    -18.93722844	     21.21613198	     89.95437384	      0.00000000	      0.00000000	     15.39717301	     15.42482720	     -1.14665496	     27.26270494	     89.95437384	      0.00000000	      0.00000000
      0.66000000	     -2.18222023	      3.04235626	      1.11995072	     -0.50639367	      0.94292085	     -1.48184081	     28.32402340	    -10.90518677	    -24.42865749	    -12.14258283	     -0.21192805	     -0.39768762	      9.74134467	     -8.38626368	     -7.75904724	     -3.80888195	     18.41748105	    -12.07102591	     -0.21067915	      7.56943860	     -0.09833032	    -16.05787366	     -5.67287577	     -2.86574249	     -7.53132197	      1.11009762	     -7.21820867	    -19.51995918	     20.70891762	     89.95437384	      0.00000000	      0.00000000	     15.08805807	     15.24188956	     -1.05263909	     27.13851620	     89.95437384	      0.00000000	      0.00000000
      0.67000000	     -2.28453668	      3.15068406	      1.23454550	     -0.49801954	      0.94169280	     -1.48080452	     28.69162786	    -10.96852277	    -24.20387145	    -12.34919534	     -0.21553412	     -0.41819952	      9.45660434	     -8.25233308	     -8.03693599	     -3.74203607	     18.26126488	    -12.48791719	     -0.21795527	      7.46945447	     -0.08069275	    -15.80574050	     -5.52132090	     -2.98327734	     -7.54296241	      0.72612711	     -7.21286286	    -19.51095821	     20.74017549	     89.95437384	      0.00000000	      0.00000000	     14.62929651	     15.15715232	     -1.05142555	     27.15698500	     89.95437384	      0.00000000	      0.00000000
      0.68000000	     -2.26352035	      3.11706230	      1.63800733	     -0.48914592	      0.94096163	     -1.48013305	     28.61599640	    -11.03645217	    -24.70745973	    -12.42835220	     -0.21691567	     -0.40020794	      9.17022658	     -8.23474249	     -8.58948375	     -3.48205134	     18.04215525	    -12.59461335	     -0.21981747	      7.46474676	     -0.47482842	    -15.79427815	     -5.48672429	     -2.90705333	     -7.80096782	      0.87741999	     -7.10639370	    -20.79873634	     19.72577063	     89.95437384	      0.00000000	      0.00000000	     14.26309070	     14.91624670	     -0.82224527	     26.82300933	     89.95437384	      0.00000000	      0.00000000
      0.69000000	     -2.37290585	      3.20611930	      1.81759669	     -0.48035671	      0.93981765	     -1.47890968	     28.83840660	    -11.10645985	    -24.29175650	    -12.86616405	     -0.22455692	     -0.50303408	      8.83725552	     -8.06650036	     -8.79956950	     -3.33789872	     17.79733046	    -13.12803715	     -0.22912747	      7.29754751	     -0.43954559	    -15.48528699	     -5.31623467	     -3.00514545	     -7.77337448	      0.37983538	     -7.12876106	    -20.76779229	     19.82739378	     89.95437384	      0.00000000	      0.00000000	     13.70778284	     14.80196802	     -0.83211998	     26.88595187	     89.95437384	      0.00000000	      0.00000000
      0.70000000	     -2.29325080	      3.07176490	      2.14265273	     -0.47093157	      0.93909227	     -1.47788738	     28.80660918	    -11.08379347	    -24.42867350	    -13.69436143	     -0.23901170	     -0.31615136	      7.87568404	     -7.99381876	     -9.38033011	     -2.92254258	     17.55458970	    -13.39565057	     -0.23379821	      7.44878992	     -0.64930037	    -15.41251106	     -5.25008265	     -2.82042084	     -7.89501374	      0.35604566	     -7.20601151	    -21.16744998	     18.90937478	     89.95437384	      0.00000000	      0.00000000	     13.33149799	     14.53614594	     -0.97584031	     26.28892965	     89.95437384	      0.00000000	      0.00000000
      0.71000000	     -2.39790073	      3.15386598	      2.33697189	     -0.46152155	      0.93798774	     -1.47632236	     28.85957426	    -11.12423406	    -23.92299621	    -14.25776911	     -0.24884501	     -0.44497163	      7.52006840	     -7.81068013	     -9.57323000	     -2.72052693	     17.22803655	    -14.02026049	     -0.24469971	      7.22191317	     -0.60941505	    -15.08035293	     -5.02400014	     -2.93676041	     -7.84419400	     -0.21870314	     -7.23641087	    -21.16009855	     19.00405711	     89.95437384	      0.00000000	      0.00000000	     12.64741480	     14.39881400	     -0.97709192	     26.34648798	     89.95437384	      0.00000000	      0.00000000
      0.72000000	     -2.15243658	      2.88604251	      2.78520555	     -0.45174059	      0.93758666	     -1.47508502	     28.56167306	    -10.99762436	    -24.06148651	    -15.44972044	     -0.26964849	     -0.04987533	      6.09891610	     -7.70417145	    -10.20829600	     -2.04891968	     16.93326606	    -14.52388596	     -0.25348963	      7.18179504	     -0.79558505	    -14.97058313	     -5.13979783	     -2.60087243	     -8.09999953	     -0.14782623	     -7.32527434	    -21.71472084	     18.00215975	     89.95437384	      0.00000000	      0.00000000	     12.17532175	     14.17080643	     -1.10834780	     25.77781435	     89.95437384	      0.00000000	      0.00000000
      0.73000000	     -1.68565534	      2.29711307	      3.22198183	     -0.44161513	      0.93765101	     -1.47301446	     27.46243590	    -10.13204617	    -23.72720151	    -15.49916616	     -0.27051148	     -0.18658361	      3.72244497	     -7.09790412	    -10.93835176	     -0.83257160	     17.08270877	    -15.31304123	     -0.26726299	      6.77167609	     -1.78499594	    -15.31362833	     -5.52053519	     -1.94889324	     -8.13080208	     -0.21745132	     -7.17177107	    -23.95434208	     17.33649964	     89.95437384	      0.00000000	      0.00000000	     11.67264327	     13.86746800	     -0.99245651	     25.51166742	     89.95437384	      0.00000000	      0.00000000
      0.74000000	     -1.62791137	      2.19703221	      3.45074486	     -0.43142844	      0.93693987	     -1.47111076	     27.19913660	     -9.96782108	    -23.38717722	    -16.41847775	     -0.28655649	     -0.08791982	      3.13585130	     -6.92059819	    -11.34018217	     -0.35283027	     16.90868803	    -15.90764197	     -0.27764073	      6.46481464	     -1.78953781	    -15.09124703	     -5.35702442	     -1.86898666	     -8.10539125	     -0.55855882	     -7.27907719	    -23.88277305	     16.86078349	     89.95437384	      0.00000000	      0.00000000	     11.00147447	     13.68786474	     -1.17226953	     25.12005745	     89.95437384	      0.00000000	      0.00000000
      0.75000000	     -1.74399429	      2.33760718	      3.60794684	     -0.42108081	      0.93595362	     -1.46911397	     26.96125758	     -9.97122929	    -22.86711917	    -16.99381641	     -0.29659805	     -0.22801653	      2.96112098	     -6.75291768	    -11.54249138	     -0.18367657	     16.52179932	    -16.57803504	     -0.28934129	      6.19579455	     -1.72025883	    -14.76325701	     -5.00316798	     -2.06602039	     -7.96196286	     -1.21872363	     -7.32409754	    -23.83590564	     16.95560256	     89.95437384	      0.00000000	      0.00000000	     10.11235441	     13.53951100	     -1.17453389	     25.09264564	     89.95437384	      0.00000000	      0.00000000
      0.76000000	     -0.69812961	      1.15368188	      4.05553335	     -0.40973122	      0.93683892	     -1.46619879	     24.93466654	     -8.30244279	    -22.76591154	    -16.94366510	     -0.29572274	     -0.20477700	      0.59283354	     -4.94324178	    -12.80246677	      2.11995663	     17.96896135	    -17.63671692	     -0.30781878	      5.04403434	     -4.54757960	    -16.07035831	     -5.82956860	     -0.74019592	     -8.04723776	     -1.14892673	     -7.41602050	    -25.00371173	     16.01556520	     89.95437384	      0.00000000	      0.00000000	      9.55035135	     13.26963588	     -1.37834395	     24.52274988	     89.95437384	      0.00000000	      0.00000000
      0.77000000	     -0.54517865	      1.07771346	      4.17233562	     -0.39909326	      0.93639753	     -1.46396169	     24.50743949	     -8.14601755	    -22.90945268	    -17.60850148	     -0.30732633	     -1.35846024	      0.58411073	     -4.60120833	    -13.26520406	      2.55583921	     17.60045539	    -18.30647736	     -0.31950830	      4.46007661	     -4.22810260	    -15.75511190	     -5.72468030	     -0.68443485	     -7.85081461	     -1.49115767	     -7.56254240	    -24.95808843	     15.55020848	     89.95437384	      0.00000000	      0.00000000	      8.81840476	     13.04882166	     -1.48408962	     24.09098901	     89.95437384	      0.00000000	      0.00000000
